<mxfile host="app.diagrams.net" modified="2024-02-04T19:49:38.532Z" agent="Mozilla/5.0 (X11; Linux x86_64; rv:122.0) Gecko/20100101 Firefox/122.0" etag="UFpT20tUpBesU78vPtio" version="23.1.1" type="github">
  <diagram id="C5RBs43oDa-KdzZeNtuy" name="Page-1">
    <mxGraphModel dx="1975" dy="1095" grid="1" gridSize="10" guides="1" tooltips="1" connect="1" arrows="1" fold="1" page="1" pageScale="1" pageWidth="827" pageHeight="2200" math="0" shadow="0">
      <root>
        <mxCell id="WIyWlLk6GJQsqaUBKTNV-0" />
        <mxCell id="WIyWlLk6GJQsqaUBKTNV-1" parent="WIyWlLk6GJQsqaUBKTNV-0" />
        <mxCell id="WIyWlLk6GJQsqaUBKTNV-3" value="Proposal from the European Commission" style="rounded=1;whiteSpace=wrap;html=1;fontSize=12;glass=0;strokeWidth=1;shadow=0;" parent="WIyWlLk6GJQsqaUBKTNV-1" vertex="1">
          <mxGeometry x="320" y="320" width="160" height="40" as="geometry" />
        </mxCell>
        <mxCell id="qnNjF8C_8HzFQq0--99x-1" value="" style="endArrow=none;html=1;rounded=0;" edge="1" parent="WIyWlLk6GJQsqaUBKTNV-1">
          <mxGeometry width="50" height="50" relative="1" as="geometry">
            <mxPoint x="400" y="400" as="sourcePoint" />
            <mxPoint x="399.5" y="360" as="targetPoint" />
          </mxGeometry>
        </mxCell>
        <mxCell id="qnNjF8C_8HzFQq0--99x-2" value="" style="endArrow=none;html=1;rounded=0;" edge="1" parent="WIyWlLk6GJQsqaUBKTNV-1">
          <mxGeometry width="50" height="50" relative="1" as="geometry">
            <mxPoint x="400" y="400" as="sourcePoint" />
            <mxPoint x="240" y="400" as="targetPoint" />
          </mxGeometry>
        </mxCell>
        <mxCell id="qnNjF8C_8HzFQq0--99x-3" value="" style="endArrow=none;html=1;rounded=0;" edge="1" parent="WIyWlLk6GJQsqaUBKTNV-1">
          <mxGeometry width="50" height="50" relative="1" as="geometry">
            <mxPoint x="560" y="400" as="sourcePoint" />
            <mxPoint x="400" y="400" as="targetPoint" />
          </mxGeometry>
        </mxCell>
        <mxCell id="qnNjF8C_8HzFQq0--99x-4" value="" style="endArrow=classic;html=1;rounded=0;" edge="1" parent="WIyWlLk6GJQsqaUBKTNV-1">
          <mxGeometry width="50" height="50" relative="1" as="geometry">
            <mxPoint x="240" y="400" as="sourcePoint" />
            <mxPoint x="240" y="470" as="targetPoint" />
          </mxGeometry>
        </mxCell>
        <mxCell id="qnNjF8C_8HzFQq0--99x-5" value="" style="endArrow=classic;html=1;rounded=0;" edge="1" parent="WIyWlLk6GJQsqaUBKTNV-1">
          <mxGeometry width="50" height="50" relative="1" as="geometry">
            <mxPoint x="560" y="400" as="sourcePoint" />
            <mxPoint x="560" y="470" as="targetPoint" />
          </mxGeometry>
        </mxCell>
        <mxCell id="qnNjF8C_8HzFQq0--99x-7" value="" style="rounded=0;whiteSpace=wrap;html=1;" vertex="1" parent="WIyWlLk6GJQsqaUBKTNV-1">
          <mxGeometry x="80" y="480" width="320" height="360" as="geometry" />
        </mxCell>
        <mxCell id="qnNjF8C_8HzFQq0--99x-30" style="edgeStyle=orthogonalEdgeStyle;rounded=0;orthogonalLoop=1;jettySize=auto;html=1;exitX=0.5;exitY=1;exitDx=0;exitDy=0;entryX=0;entryY=0.5;entryDx=0;entryDy=0;" edge="1" parent="WIyWlLk6GJQsqaUBKTNV-1" source="qnNjF8C_8HzFQq0--99x-9" target="WIyWlLk6GJQsqaUBKTNV-3">
          <mxGeometry relative="1" as="geometry" />
        </mxCell>
        <mxCell id="qnNjF8C_8HzFQq0--99x-9" value="&lt;div&gt;Stakeholder Consultations&lt;br&gt;&lt;font style=&quot;font-size: 10px;&quot;&gt;(with Businesses, NGOs, or You!)&lt;/font&gt;&lt;br&gt;&lt;/div&gt;" style="rounded=1;whiteSpace=wrap;html=1;fontSize=12;glass=0;strokeWidth=1;shadow=0;" vertex="1" parent="WIyWlLk6GJQsqaUBKTNV-1">
          <mxGeometry x="70" y="230" width="172.5" height="60" as="geometry" />
        </mxCell>
        <mxCell id="qnNjF8C_8HzFQq0--99x-25" style="edgeStyle=orthogonalEdgeStyle;rounded=0;orthogonalLoop=1;jettySize=auto;html=1;exitX=0;exitY=0.5;exitDx=0;exitDy=0;" edge="1" parent="WIyWlLk6GJQsqaUBKTNV-1" source="qnNjF8C_8HzFQq0--99x-10" target="qnNjF8C_8HzFQq0--99x-9">
          <mxGeometry relative="1" as="geometry" />
        </mxCell>
        <mxCell id="qnNjF8C_8HzFQq0--99x-28" style="edgeStyle=orthogonalEdgeStyle;rounded=0;orthogonalLoop=1;jettySize=auto;html=1;exitX=0.5;exitY=1;exitDx=0;exitDy=0;entryX=0.5;entryY=0;entryDx=0;entryDy=0;" edge="1" parent="WIyWlLk6GJQsqaUBKTNV-1" source="qnNjF8C_8HzFQq0--99x-10" target="qnNjF8C_8HzFQq0--99x-27">
          <mxGeometry relative="1" as="geometry" />
        </mxCell>
        <mxCell id="qnNjF8C_8HzFQq0--99x-29" style="edgeStyle=orthogonalEdgeStyle;rounded=0;orthogonalLoop=1;jettySize=auto;html=1;exitX=1;exitY=0.5;exitDx=0;exitDy=0;entryX=0.5;entryY=0;entryDx=0;entryDy=0;" edge="1" parent="WIyWlLk6GJQsqaUBKTNV-1" source="qnNjF8C_8HzFQq0--99x-10" target="qnNjF8C_8HzFQq0--99x-26">
          <mxGeometry relative="1" as="geometry" />
        </mxCell>
        <mxCell id="qnNjF8C_8HzFQq0--99x-10" value="Commission adds the idea to its work programme." style="rounded=1;whiteSpace=wrap;html=1;fontSize=12;glass=0;strokeWidth=1;shadow=0;" vertex="1" parent="WIyWlLk6GJQsqaUBKTNV-1">
          <mxGeometry x="320" y="170" width="160" height="40" as="geometry" />
        </mxCell>
        <mxCell id="qnNjF8C_8HzFQq0--99x-12" value="&lt;div&gt;&lt;b&gt;Idea from Parliament&lt;/b&gt;&lt;/div&gt;&lt;div&gt;&lt;font style=&quot;font-size: 10px;&quot;&gt;(Parliament Initiative)&lt;/font&gt;&lt;br&gt;&lt;/div&gt;" style="rounded=1;whiteSpace=wrap;html=1;fontSize=12;glass=0;strokeWidth=1;shadow=0;" vertex="1" parent="WIyWlLk6GJQsqaUBKTNV-1">
          <mxGeometry x="10" y="20" width="180" height="60" as="geometry" />
        </mxCell>
        <mxCell id="qnNjF8C_8HzFQq0--99x-13" value="&lt;div&gt;&lt;b&gt;Idea from Citizens&lt;/b&gt;&lt;/div&gt;&lt;div style=&quot;font-size: 10px;&quot;&gt;(European Citizens Initiative)&lt;br&gt;&lt;/div&gt;" style="rounded=1;whiteSpace=wrap;html=1;fontSize=12;glass=0;strokeWidth=1;shadow=0;" vertex="1" parent="WIyWlLk6GJQsqaUBKTNV-1">
          <mxGeometry x="220" y="20" width="180" height="60" as="geometry" />
        </mxCell>
        <mxCell id="qnNjF8C_8HzFQq0--99x-14" value="&lt;div&gt;&lt;b&gt;Idea from EU Countries&lt;/b&gt;&lt;/div&gt;&lt;div&gt;&lt;font style=&quot;font-size: 10px;&quot;&gt;(Council Resolutions,&lt;/font&gt;&lt;/div&gt;&lt;div&gt;&lt;font style=&quot;font-size: 10px;&quot;&gt;European Council Conclusions)&lt;/font&gt;&lt;/div&gt;" style="rounded=1;whiteSpace=wrap;html=1;fontSize=12;glass=0;strokeWidth=1;shadow=0;" vertex="1" parent="WIyWlLk6GJQsqaUBKTNV-1">
          <mxGeometry x="429" y="20" width="180" height="60" as="geometry" />
        </mxCell>
        <mxCell id="qnNjF8C_8HzFQq0--99x-15" value="&lt;div&gt;&lt;b&gt;Ideas from the Commission&lt;/b&gt;&lt;/div&gt;" style="rounded=1;whiteSpace=wrap;html=1;fontSize=12;glass=0;strokeWidth=1;shadow=0;" vertex="1" parent="WIyWlLk6GJQsqaUBKTNV-1">
          <mxGeometry x="639" y="20" width="180" height="60" as="geometry" />
        </mxCell>
        <mxCell id="qnNjF8C_8HzFQq0--99x-17" value="" style="endArrow=none;html=1;rounded=0;exitX=0.5;exitY=1;exitDx=0;exitDy=0;" edge="1" parent="WIyWlLk6GJQsqaUBKTNV-1" source="qnNjF8C_8HzFQq0--99x-12">
          <mxGeometry width="50" height="50" relative="1" as="geometry">
            <mxPoint x="360" y="460" as="sourcePoint" />
            <mxPoint x="730" y="130" as="targetPoint" />
            <Array as="points">
              <mxPoint x="100" y="130" />
              <mxPoint x="320" y="130" />
            </Array>
          </mxGeometry>
        </mxCell>
        <mxCell id="qnNjF8C_8HzFQq0--99x-18" value="" style="endArrow=none;html=1;rounded=0;entryX=0.5;entryY=1;entryDx=0;entryDy=0;" edge="1" parent="WIyWlLk6GJQsqaUBKTNV-1" target="qnNjF8C_8HzFQq0--99x-15">
          <mxGeometry width="50" height="50" relative="1" as="geometry">
            <mxPoint x="730" y="130" as="sourcePoint" />
            <mxPoint x="730" y="100" as="targetPoint" />
          </mxGeometry>
        </mxCell>
        <mxCell id="qnNjF8C_8HzFQq0--99x-20" value="" style="endArrow=none;html=1;rounded=0;entryX=0.507;entryY=1.044;entryDx=0;entryDy=0;entryPerimeter=0;" edge="1" parent="WIyWlLk6GJQsqaUBKTNV-1" target="qnNjF8C_8HzFQq0--99x-14">
          <mxGeometry width="50" height="50" relative="1" as="geometry">
            <mxPoint x="520" y="130" as="sourcePoint" />
            <mxPoint x="520" y="90" as="targetPoint" />
          </mxGeometry>
        </mxCell>
        <mxCell id="qnNjF8C_8HzFQq0--99x-21" value="" style="endArrow=none;html=1;rounded=0;entryX=0.5;entryY=1;entryDx=0;entryDy=0;" edge="1" parent="WIyWlLk6GJQsqaUBKTNV-1" target="qnNjF8C_8HzFQq0--99x-13">
          <mxGeometry width="50" height="50" relative="1" as="geometry">
            <mxPoint x="310" y="130" as="sourcePoint" />
            <mxPoint x="310" y="90" as="targetPoint" />
          </mxGeometry>
        </mxCell>
        <mxCell id="qnNjF8C_8HzFQq0--99x-23" value="" style="endArrow=classic;html=1;rounded=0;entryX=0.503;entryY=-0.086;entryDx=0;entryDy=0;entryPerimeter=0;" edge="1" parent="WIyWlLk6GJQsqaUBKTNV-1" target="qnNjF8C_8HzFQq0--99x-10">
          <mxGeometry width="50" height="50" relative="1" as="geometry">
            <mxPoint x="400" y="130" as="sourcePoint" />
            <mxPoint x="400" y="170" as="targetPoint" />
          </mxGeometry>
        </mxCell>
        <mxCell id="qnNjF8C_8HzFQq0--99x-31" style="edgeStyle=orthogonalEdgeStyle;rounded=0;orthogonalLoop=1;jettySize=auto;html=1;exitX=0.5;exitY=1;exitDx=0;exitDy=0;entryX=1;entryY=0.5;entryDx=0;entryDy=0;" edge="1" parent="WIyWlLk6GJQsqaUBKTNV-1" source="qnNjF8C_8HzFQq0--99x-26" target="WIyWlLk6GJQsqaUBKTNV-3">
          <mxGeometry relative="1" as="geometry" />
        </mxCell>
        <mxCell id="qnNjF8C_8HzFQq0--99x-26" value="Impact Assessment" style="rounded=1;whiteSpace=wrap;html=1;fontSize=12;glass=0;strokeWidth=1;shadow=0;" vertex="1" parent="WIyWlLk6GJQsqaUBKTNV-1">
          <mxGeometry x="540" y="230" width="172.5" height="60" as="geometry" />
        </mxCell>
        <mxCell id="qnNjF8C_8HzFQq0--99x-32" style="edgeStyle=orthogonalEdgeStyle;rounded=0;orthogonalLoop=1;jettySize=auto;html=1;exitX=0.5;exitY=1;exitDx=0;exitDy=0;" edge="1" parent="WIyWlLk6GJQsqaUBKTNV-1" source="qnNjF8C_8HzFQq0--99x-27">
          <mxGeometry relative="1" as="geometry">
            <mxPoint x="400" y="320" as="targetPoint" />
          </mxGeometry>
        </mxCell>
        <mxCell id="qnNjF8C_8HzFQq0--99x-27" value="Research and evaluation of existing laws" style="rounded=1;whiteSpace=wrap;html=1;fontSize=12;glass=0;strokeWidth=1;shadow=0;" vertex="1" parent="WIyWlLk6GJQsqaUBKTNV-1">
          <mxGeometry x="313.75" y="230" width="172.5" height="60" as="geometry" />
        </mxCell>
      </root>
    </mxGraphModel>
  </diagram>
</mxfile>
